<svg height="512" viewBox="0 0 64 64" width="512" xmlns="http://www.w3.org/2000/svg"><g id="flat"><path d="m21 37h22v24h-22z" fill="#dd3e46"/><path d="m29.87 43.5-1.74 1-4.28-7.5h2.31z" fill="#f98c96"/><path d="m40.15 37-4.28 7.5-1.74-1 3.71-6.5z" fill="#f98c96"/><path d="m16 37v-11a2 2 0 0 0 -2-2h-8a2 2 0 0 0 -2 2 2 2 0 0 0 2 2h4v13a2 2 0 0 0 2 2h9v-6z" fill="#ffd782"/><path d="m48 37v-11a2 2 0 0 1 2-2h8a2 2 0 0 1 2 2 2 2 0 0 1 -2 2h-4v13a2 2 0 0 1 -2 2h-9v-6z" fill="#ffd782"/><path d="m16 34h-6v7a2 2 0 0 0 2 2h9v-6h-5z" fill="#f98c96"/><path d="m10 30h6v4h-6z" fill="#fcf05a"/><path d="m48 34h6v7a2 2 0 0 1 -2 2h-9v-6h5z" fill="#f98c96"/><path d="m48 30h6v4h-6z" fill="#fcf05a" transform="matrix(-1 0 0 -1 102 64)"/><path d="m39 50a6.979 6.979 0 0 1 -6 6.92 11.134 11.134 0 0 1 -2 0 6.991 6.991 0 0 1 0-13.84 11.134 11.134 0 0 1 2 0 6.979 6.979 0 0 1 6 6.92z" fill="#fcf05a"/><path d="m36 52a3.009 3.009 0 0 1 -3 3v1.92a6.29 6.29 0 0 1 -2 0v-1.92h-2v-2h4a1 1 0 0 0 0-2h-2a3 3 0 0 1 0-6v-1.92a6.29 6.29 0 0 1 2 0v1.92h2v2h-4a1 1 0 0 0 0 2h2a3.009 3.009 0 0 1 3 3z" fill="#f9bb4b"/><path d="m22 13h20v20h-20z" fill="#ffd782"/><path d="m22 25a4 4 0 0 1 0-8z" fill="#f9bb4b"/><path d="m42 17a4 4 0 0 1 0 8z" fill="#f9bb4b"/><path d="m28 26h8a0 0 0 0 1 0 0v1a4 4 0 0 1 -4 4 4 4 0 0 1 -4-4v-1a0 0 0 0 1 0 0z" fill="#dd3e46"/><path d="m38 5a2 2 0 0 1 -2 2h-12a2 2 0 0 0 -2 2v4h20v-10h-2a2 2 0 0 0 -2 2z" fill="#394d5c"/><path d="m27 22a5 5 0 0 0 5-5h-10a5 5 0 0 0 5 5z" fill="#195c85"/><path d="m37 22a5 5 0 0 0 5-5h-10a5 5 0 0 0 5 5z" fill="#195c85"/><path d="m3 57h12v4h-12z" fill="#fcf05a"/><path d="m5 53h12v4h-12z" fill="#f9bb4b"/><path d="m3 49h12v4h-12z" fill="#fcf05a"/><path d="m49 57h12v4h-12z" fill="#f9bb4b" transform="matrix(-1 0 0 -1 110 118)"/><path d="m47 53h12v4h-12z" fill="#fcf05a" transform="matrix(-1 0 0 -1 106 110)"/><path d="m49 49h12v4h-12z" fill="#f9bb4b" transform="matrix(-1 0 0 -1 110 102)"/><g fill="#55b56a"><path d="m50 8h-2a1 1 0 0 1 0-2h4v-2h-2v-2h-2v2a3 3 0 0 0 0 6h2a1 1 0 0 1 0 2h-4v2h2v2h2v-2a3 3 0 0 0 0-6z"/><path d="m58 13h-2a1 1 0 0 1 0-2h4v-2h-2v-2h-2v2a3 3 0 0 0 0 6h2a1 1 0 0 1 0 2h-4v2h2v2h2v-2a3 3 0 0 0 0-6z"/><path d="m16 8h-2a1 1 0 0 1 0-2h4v-2h-2v-2h-2v2a3 3 0 0 0 0 6h2a1 1 0 0 1 0 2h-4v2h2v2h2v-2a3 3 0 0 0 0-6z"/><path d="m8 13h-2a1 1 0 0 1 0-2h4v-2h-2v-2h-2v2a3 3 0 0 0 0 6h2a1 1 0 0 1 0 2h-4v2h2v2h2v-2a3 3 0 0 0 0-6z"/></g><path d="m3 3h2v2h-2z" fill="#e97424"/><path d="m12 19h2v2h-2z" fill="#e97424"/><path d="m49 18h2v2h-2z" fill="#e97424"/><path d="m55 3h2v2h-2z" fill="#e97424"/></g></svg>